# 3ds Max Wavefront OBJ Exporter v0.97b - (c)2007 guruware
# File Created: 28.05.2017 15:49:21

mtllib star.mtl

#
# object star
#

v  0.0074 -0.3125 0.5580
v  0.4265 -0.3234 0.4784
v  0.4254 0.3962 0.3586
v  0.0063 0.4134 0.4383
v  -0.4047 -0.3253 0.4749
v  -0.4058 0.3944 0.3552
v  1.1998 -1.3929 -0.0450
v  0.0113 -0.9455 -0.0466
v  0.0116 -0.0852 -0.5966
v  0.9225 -0.3998 -0.0389
v  0.0071 -0.0934 0.5221
v  1.6145 0.3892 -0.0302
v  -1.1689 -1.3981 -0.0548
v  -0.8961 -0.4038 -0.0464
v  -1.5916 0.3821 -0.0436
v  0.6081 0.4807 -0.0337
v  0.0060 1.3981 -0.0295
v  -0.5856 0.4781 -0.0387
# 18 vertices

vn -0.0055 0.1632 0.9866
vn 0.1882 0.1615 0.9688
vn 0.1898 0.1605 0.9686
vn -0.2006 0.1596 0.9666
vn -0.2022 0.1605 0.9661
vn 0.6751 -0.7377 -0.0037
vn 0.0033 -0.9999 -0.0105
vn 0.0031 0.0283 -0.9996
vn 0.9840 -0.1783 -0.0007
vn -0.0052 0.0138 0.9999
vn 0.9385 0.3453 0.0052
vn -0.6707 -0.7417 -0.0093
vn -0.9833 -0.1819 -0.0089
vn -0.9399 0.3415 -0.0026
vn 0.4333 0.9012 0.0049
vn -0.0039 1.0000 0.0060
vn -0.4413 0.8973 0.0012
# 17 vertex normals

vt 0.0000 0.0664 0.0000
vt 0.9668 0.0664 0.0000
vt 0.9668 0.9632 0.0000
vt 0.0000 0.9632 0.0000
vt 0.8465 1.8610 0.0000
vt 0.5161 1.9959 0.0000
vt 0.3667 1.4517 0.0000
vt 0.9981 1.5844 0.0000
vt 0.6655 1.4592 0.0000
vt 0.9204 1.1944 0.0000
vt 0.1818 1.8626 0.0000
vt 0.0341 1.5866 0.0000
vt 0.1080 1.1963 0.0000
vt 0.7533 1.0322 0.0000
vt 0.5161 0.9718 0.0000
vt 0.2790 1.0333 0.0000
# 16 texture coords

g star
usemtl Material_065_713E77D_c_bmp
s 1
f 1/1/1 2/2/2 3/3/3 
f 4/4/1 1/1/1 3/3/3 
f 5/1/4 1/2/1 4/3/1 
f 6/4/5 5/1/4 4/3/1 
usemtl Material_063_3ED452ED_c_bmp
f 7/5/6 8/6/7 9/7/8 
f 10/8/9 7/5/6 9/7/8 
f 7/5/6 11/9/10 8/6/7 
f 10/8/9 11/9/10 7/5/6 
f 10/8/9 9/7/8 12/10/11 
f 10/8/9 12/10/11 11/9/10 
f 13/11/12 11/9/10 14/12/13 
f 8/6/7 11/9/10 13/11/12 
f 14/12/13 11/9/10 15/13/14 
f 11/9/10 16/14/15 17/15/16 
f 18/16/17 11/9/10 17/15/16 
f 12/10/11 16/14/15 11/9/10 
f 15/13/14 11/9/10 18/16/17 
f 8/6/7 13/11/12 9/7/8 
f 13/11/12 14/12/13 9/7/8 
f 14/12/13 15/13/14 9/7/8 
f 15/13/14 18/16/17 9/7/8 
f 18/16/17 17/15/16 9/7/8 
f 12/10/11 9/7/8 16/14/15 
f 9/7/8 17/15/16 16/14/15 
# 0 polygons - 24 triangles

